<svg width="18" height="21" viewBox="0 0 18 21" fill="none" xmlns="http://www.w3.org/2000/svg">
<path d="M13.82 0.160034H4.18001C2.06001 0.160034 0.320007 1.90003 0.320007 4.02003V18.11C0.320007 19.91 1.61001 20.67 3.19001 19.8L8.07001 17.09C8.59001 16.8 9.43001 16.8 9.94001 17.09L14.82 19.8C16.4 20.68 17.69 19.92 17.69 18.11V4.02003C17.68 1.90003 15.95 0.160034 13.82 0.160034ZM12.62 7.28003L8.62001 11.28C8.47001 11.43 8.28001 11.5 8.09001 11.5C7.90001 11.5 7.71001 11.43 7.56001 11.28L6.06001 9.78003C5.92053 9.6389 5.84231 9.44846 5.84231 9.25003C5.84231 9.0516 5.92053 8.86117 6.06001 8.72003C6.35001 8.43003 6.83001 8.43003 7.12001 8.72003L8.09001 9.69003L11.56 6.22003C11.85 5.93003 12.33 5.93003 12.62 6.22003C12.91 6.51003 12.91 6.99003 12.62 7.28003Z" fill="#2C4001"/>
</svg>
