<svg width="24" height="25" viewBox="0 0 24 25" fill="none" xmlns="http://www.w3.org/2000/svg">
<path d="M16.82 2.16H7.18001C5.06001 2.16 3.32001 3.9 3.32001 6.02V20.11C3.32001 21.91 4.61001 22.67 6.19001 21.8L11.07 19.09C11.59 18.8 12.43 18.8 12.94 19.09L17.82 21.8C19.4 22.68 20.69 21.92 20.69 20.11V6.02C20.68 3.9 18.95 2.16 16.82 2.16ZM15.62 9.28L11.62 13.28C11.47 13.43 11.28 13.5 11.09 13.5C10.9 13.5 10.71 13.43 10.56 13.28L9.06001 11.78C8.92053 11.6389 8.84231 11.4484 8.84231 11.25C8.84231 11.0516 8.92053 10.8611 9.06001 10.72C9.35001 10.43 9.83001 10.43 10.12 10.72L11.09 11.69L14.56 8.22C14.85 7.93 15.33 7.93 15.62 8.22C15.91 8.51 15.91 8.99 15.62 9.28Z" fill="#2C4001"/>
</svg>
