<svg width="24" height="25" viewBox="0 0 24 25" fill="none" xmlns="http://www.w3.org/2000/svg">
<path d="M16.75 3.81V2.25C16.75 1.84 16.41 1.5 16 1.5C15.59 1.5 15.25 1.84 15.25 2.25V3.75H8.75V2.25C8.75 1.84 8.41 1.5 8 1.5C7.59 1.5 7.25 1.84 7.25 2.25V3.81C4.55 4.06 3.24 5.67 3.04 8.06C3.02 8.35 3.26 8.59 3.54 8.59H20.46C20.75 8.59 20.99 8.34 20.96 8.06C20.76 5.67 19.45 4.06 16.75 3.81ZM20 10.09H4C3.45 10.09 3 10.54 3 11.09V17.25C3 20.25 4.5 22.25 8 22.25H16C19.5 22.25 21 20.25 21 17.25V11.09C21 10.54 20.55 10.09 20 10.09ZM9.21 18.46C9.16 18.5 9.11 18.55 9.06 18.58C9 18.62 8.94 18.65 8.88 18.67C8.82 18.7 8.76 18.72 8.7 18.73C8.63 18.74 8.57 18.75 8.5 18.75C8.37 18.75 8.24 18.72 8.12 18.67C7.99 18.62 7.89 18.55 7.79 18.46C7.61 18.27 7.5 18.01 7.5 17.75C7.5 17.49 7.61 17.23 7.79 17.04C7.89 16.95 7.99 16.88 8.12 16.83C8.3 16.75 8.5 16.73 8.7 16.77C8.76 16.78 8.82 16.8 8.88 16.83C8.94 16.85 9 16.88 9.06 16.92L9.21 17.04C9.39 17.23 9.5 17.49 9.5 17.75C9.5 18.01 9.39 18.27 9.21 18.46ZM9.21 14.96C9.02 15.14 8.76 15.25 8.5 15.25C8.24 15.25 7.98 15.14 7.79 14.96C7.61 14.77 7.5 14.51 7.5 14.25C7.5 13.99 7.61 13.73 7.79 13.54C8.07 13.26 8.51 13.17 8.88 13.33C9.01 13.38 9.12 13.45 9.21 13.54C9.39 13.73 9.5 13.99 9.5 14.25C9.5 14.51 9.39 14.77 9.21 14.96ZM12.71 18.46C12.52 18.64 12.26 18.75 12 18.75C11.74 18.75 11.48 18.64 11.29 18.46C11.11 18.27 11 18.01 11 17.75C11 17.49 11.11 17.23 11.29 17.04C11.66 16.67 12.34 16.67 12.71 17.04C12.89 17.23 13 17.49 13 17.75C13 18.01 12.89 18.27 12.71 18.46ZM12.71 14.96L12.56 15.08C12.5 15.12 12.44 15.15 12.38 15.17C12.32 15.2 12.26 15.22 12.2 15.23C12.13 15.24 12.07 15.25 12 15.25C11.74 15.25 11.48 15.14 11.29 14.96C11.11 14.77 11 14.51 11 14.25C11 13.99 11.11 13.73 11.29 13.54C11.38 13.45 11.49 13.38 11.62 13.33C11.99 13.17 12.43 13.26 12.71 13.54C12.89 13.73 13 13.99 13 14.25C13 14.51 12.89 14.77 12.71 14.96ZM16.21 18.46C16.02 18.64 15.76 18.75 15.5 18.75C15.24 18.75 14.98 18.64 14.79 18.46C14.61 18.27 14.5 18.01 14.5 17.75C14.5 17.49 14.61 17.23 14.79 17.04C15.16 16.67 15.84 16.67 16.21 17.04C16.39 17.23 16.5 17.49 16.5 17.75C16.5 18.01 16.39 18.27 16.21 18.46ZM16.21 14.96L16.06 15.08C16 15.12 15.94 15.15 15.88 15.17C15.82 15.2 15.76 15.22 15.7 15.23C15.63 15.24 15.56 15.25 15.5 15.25C15.24 15.25 14.98 15.14 14.79 14.96C14.61 14.77 14.5 14.51 14.5 14.25C14.5 13.99 14.61 13.73 14.79 13.54C14.89 13.45 14.99 13.38 15.12 13.33C15.3 13.25 15.5 13.23 15.7 13.27C15.76 13.28 15.82 13.3 15.88 13.33C15.94 13.35 16 13.38 16.06 13.42L16.21 13.54C16.39 13.73 16.5 13.99 16.5 14.25C16.5 14.51 16.39 14.77 16.21 14.96Z" fill="#2C4001"/>
</svg>
