<svg width="28" height="30" viewBox="0 0 28 30" fill="none" xmlns="http://www.w3.org/2000/svg">
<path d="M22.7898 9.92226C23.4148 9.92226 24.0337 9.79964 24.6111 9.5614C25.1885 9.32316 25.7132 8.97397 26.1551 8.53376C26.597 8.09355 26.9476 7.57095 27.1868 6.99579C27.4259 6.42063 27.549 5.80418 27.549 5.18163C27.549 4.55909 27.4259 3.94263 27.1868 3.36748C26.9476 2.79232 26.597 2.26971 26.1551 1.82951C25.7132 1.3893 25.1885 1.04011 24.6111 0.801868C24.0337 0.563629 23.4148 0.44101 22.7898 0.44101C21.5276 0.44101 20.3171 0.940467 19.4245 1.82951C18.532 2.71855 18.0306 3.92434 18.0306 5.18163C18.0306 6.43893 18.532 7.64472 19.4245 8.53376C20.3171 9.4228 21.5276 9.92226 22.7898 9.92226ZM4.97491 9.92226C5.5999 9.92226 6.21877 9.79964 6.79619 9.5614C7.3736 9.32316 7.89825 8.97397 8.34019 8.53376C8.78212 8.09355 9.13268 7.57095 9.37186 6.99579C9.61103 6.42063 9.73413 5.80418 9.73413 5.18163C9.73413 4.55909 9.61103 3.94263 9.37186 3.36748C9.13268 2.79232 8.78212 2.26971 8.34019 1.82951C7.89825 1.3893 7.3736 1.04011 6.79619 0.801868C6.21877 0.563629 5.5999 0.44101 4.97491 0.44101C3.71269 0.44101 2.50217 0.940467 1.60964 1.82951C0.717114 2.71855 0.215698 3.92434 0.215698 5.18163C0.215698 6.43893 0.717114 7.64472 1.60964 8.53376C2.50217 9.4228 3.71269 9.92226 4.97491 9.92226ZM22.7898 29.6231C24.052 29.6231 25.2626 29.1236 26.1551 28.2346C27.0476 27.3455 27.549 26.1397 27.549 24.8824C27.549 23.6252 27.0476 22.4194 26.1551 21.5303C25.2626 20.6413 24.052 20.1418 22.7898 20.1418C21.5276 20.1418 20.3171 20.6413 19.4245 21.5303C18.532 22.4194 18.0306 23.6252 18.0306 24.8824C18.0306 26.1397 18.532 27.3455 19.4245 28.2346C20.3171 29.1236 21.5276 29.6231 22.7898 29.6231ZM4.97491 29.6231C6.23714 29.6231 7.44766 29.1236 8.34019 28.2346C9.23271 27.3455 9.73413 26.1397 9.73413 24.8824C9.73413 23.6252 9.23271 22.4194 8.34019 21.5303C7.44766 20.6413 6.23714 20.1418 4.97491 20.1418C3.71269 20.1418 2.50217 20.6413 1.60964 21.5303C0.717114 22.4194 0.215698 23.6252 0.215698 24.8824C0.215698 26.1397 0.717114 27.3455 1.60964 28.2346C2.50217 29.1236 3.71269 29.6231 4.97491 29.6231Z" fill="#2C4001"/>
</svg>
